<svg width="512" height="444" viewBox="0 0 512 444" fill="none" xmlns="http://www.w3.org/2000/svg">
<path d="M466.175 240.45C483.565 246.914 461.005 216.412 458.42 212.372C444.555 191.364 414.945 196.01 392.855 203.888C365.36 214.594 356.9 241.864 351.73 265.498C349.615 291.152 325.88 309.938 324 335.39C323.295 348.116 316.245 359.63 305.67 368.72C300.5 378.214 322.825 373.77 328.23 372.154C331.755 371.346 334.575 371.75 336.925 374.376C347.97 387.708 368.65 376.194 382.75 385.486C397.555 394.98 402.49 386.092 412.36 391.546C420.82 398.414 430.925 392.96 439.15 388.92C447.61 384.072 456.07 387.506 464.53 390.334C471.815 392.556 487.795 391.344 483.095 381.648C441.5 341.046 478.395 287.516 466.175 240.45Z" fill="#F9E3C7"/>
<path d="M421.76 247.52C417.06 249.742 412.36 252.772 407.19 254.186C406.955 254.186 406.955 254.186 406.72 254.388C406.485 254.388 406.485 254.388 406.25 254.59C406.015 254.792 406.015 254.994 406.25 255.398C407.19 257.62 407.895 259.236 409.775 261.054C411.655 262.872 414.24 263.882 416.825 264.69C422.23 265.902 427.635 264.69 430.925 260.852C434.685 256.408 438.68 249.742 435.86 244.49C431.16 242.874 425.755 245.702 421.76 247.52Z" fill="#63422B"/>
<path d="M382.28 249.338C379.93 247.318 377.58 245.298 374.995 243.48C373.585 242.47 366.535 236.814 365.83 240.854C364.655 247.116 365.595 252.974 371 257.62C373.115 259.438 376.17 260.852 379.225 260.852C383.22 260.852 386.04 258.428 387.92 255.398C387.92 255.196 388.155 254.994 388.155 254.792C388.86 254.186 382.985 249.944 382.28 249.338Z" fill="#63422B"/>
<path d="M400.61 269.336C398.965 267.922 396.38 266.508 394.03 266.306C393.56 266.306 393.09 266.306 392.62 266.306C385.805 266.306 383.22 272.972 380.635 277.012C387.685 275.194 396.85 275.598 402.255 280.244C403.665 281.456 404.605 283.678 406.72 284.082C409.07 279.032 404.605 272.568 400.61 269.336Z" fill="#63422B"/>
<path d="M457.01 313.776C456.54 313.978 456.305 314.382 456.305 314.786C458.42 320.24 452.78 325.492 450.195 327.512C449.255 328.32 448.08 329.128 447.14 329.936C443.615 332.562 439.855 335.39 437.975 339.228C436.565 342.056 436.33 345.086 436.095 347.914C436.095 348.924 435.86 350.136 435.86 351.146C435.625 353.772 434.215 358.62 430.22 360.64C426.225 362.458 421.29 360.842 418.47 358.62C415.18 355.994 413.3 352.156 411.89 348.722C410.01 344.48 408.13 339.632 408.13 334.582C408.13 329.33 410.245 324.684 413.77 321.654C416.12 319.634 419.175 318.422 422.465 317.008C425.285 315.796 428.105 314.584 430.69 312.968C435.39 309.736 438.21 304.484 439.15 298.02C439.855 292.566 439.15 286.91 438.21 281.456C438.21 281.052 437.74 280.648 437.27 280.85C436.8 280.85 436.33 281.254 436.565 281.658C437.505 286.91 438.21 292.364 437.505 297.818C436.8 303.676 433.98 308.524 429.75 311.554C427.4 313.17 424.58 314.382 421.995 315.392C418.94 316.806 415.65 318.018 412.83 320.24C408.835 323.472 406.485 328.724 406.485 334.38C406.485 339.632 408.365 344.884 410.245 349.126C411.89 352.762 413.77 356.6 417.295 359.63C419.645 361.448 422.935 362.862 426.46 362.862C428.105 362.862 429.515 362.66 431.16 361.852C435.86 359.63 437.505 354.782 437.975 351.146C438.21 350.136 438.21 348.924 438.21 347.914C438.445 345.086 438.68 342.258 439.855 339.632C441.5 336.198 445.025 333.572 448.55 330.946C449.49 330.138 450.665 329.33 451.605 328.522C454.425 326.3 460.535 320.442 458.185 314.18C457.95 313.776 457.48 313.574 457.01 313.776Z" fill="#D88D50"/>
<path d="M391.446 279.436C389.096 279.436 386.746 280.042 385.101 281.658C384.631 282.062 384.631 282.466 385.101 282.87C385.571 283.274 386.041 283.274 386.511 282.87C387.921 281.86 389.801 281.254 391.446 281.254C393.326 281.254 395.206 282.062 396.381 283.274C396.616 283.476 396.851 283.476 397.086 283.476C397.321 283.476 397.556 283.476 397.791 283.274C398.261 283.072 398.261 282.466 397.791 282.062C396.146 280.446 393.796 279.638 391.446 279.436Z" fill="#D88D50"/>
<path d="M184.208 334.96C177.712 337.592 177.712 328.192 177.016 324.996C179.104 290.404 160.544 252.992 110.432 259.008C93.4963 259.948 77.0243 269.724 67.7443 281.004C60.0883 292.472 52.2003 304.504 52.6643 317.852C51.7363 324.62 61.4803 321.424 66.5843 321.8C69.8323 343.796 67.7443 365.98 49.1843 383.276C42.9203 392.488 29.4643 394.18 21.1123 401.324C21.1123 401.888 21.1123 402.452 21.1123 403.016C22.5043 404.52 24.5923 406.024 25.2883 407.904C31.3203 430.088 54.2883 416.176 68.9043 432.908C81.4323 443.06 96.7443 425.2 109.272 434.976C147.552 455.28 138.968 422.568 166.112 424.26C193.72 418.808 177.016 383.276 186.992 367.484C189.544 364.288 192.56 361.656 196.736 360.152C207.176 355.64 212.048 345.112 210.888 335.9C209.264 321.048 192.56 329.132 184.208 334.96Z" fill="#F9E3C7"/>
<path d="M122.961 293.036C119.713 289.652 114.145 285.704 108.577 287.396C101.385 289.652 100.457 298.488 100.225 303.564C99.9927 312.024 107.881 326.124 113.217 310.332C114.609 306.196 117.393 307.136 120.641 309.58C123.425 311.46 129.689 315.784 130.849 309.956C131.081 308.828 130.617 307.7 130.153 306.572C128.297 301.684 126.905 297.172 122.961 293.036Z" fill="#63422B"/>
<path d="M158.689 284.388C153.121 281.192 147.321 283.072 144.769 287.96C143.145 290.968 142.449 294.164 142.449 297.36C142.449 299.428 142.681 301.684 143.145 303.752C143.609 306.196 145.233 309.016 148.713 309.016C152.193 309.016 153.353 306.196 154.745 304.316C157.761 300.368 165.417 309.956 167.041 301.12C168.201 295.292 164.489 287.772 158.689 284.388Z" fill="#63422B"/>
<path d="M146.625 313.339C145.929 313.527 145.233 313.903 144.537 314.091C141.985 315.219 140.129 314.467 137.577 314.655C136.881 314.655 136.649 314.655 136.185 315.219C135.257 316.347 136.881 318.603 137.345 319.355C141.753 325.559 148.713 319.919 148.945 314.843V314.655C148.945 314.279 148.945 314.091 148.713 313.715C148.249 313.339 147.553 313.151 146.625 313.339Z" fill="#63422B"/>
<path d="M128.297 345.676C125.281 345.676 122.729 346.992 120.177 348.12L119.945 348.308C113.217 351.504 107.881 353.384 102.777 353.948C96.2806 354.7 89.7846 353.196 85.8406 350C85.6086 349.812 84.9126 349.812 84.6806 350C84.4486 350.188 84.4486 350.752 84.6806 350.94C89.0886 354.324 96.0486 356.016 103.009 355.264C108.577 354.7 113.913 352.82 120.873 349.436L121.105 349.248C123.425 348.12 125.745 346.992 128.297 346.992C131.545 346.992 134.793 349.436 135.953 352.444C136.881 355.64 135.489 359.024 134.097 361.28C129.921 368.236 121.337 373.688 110.897 375.944C102.081 378.012 91.8726 377.824 80.7366 375.568C80.2726 375.568 79.8086 375.756 79.8086 376.132C79.8086 376.508 80.0406 376.884 80.5046 376.884C86.5366 378.012 92.1046 378.764 97.6726 378.764C102.545 378.764 107.185 378.2 111.593 377.26C122.497 374.816 131.313 368.988 135.721 361.844C137.809 358.272 138.505 354.888 137.577 352.068C136.185 348.496 132.241 345.676 128.297 345.676Z" fill="#D88D50"/>
<path d="M147.32 323.867C146.392 324.995 144.768 325.747 142.912 325.935C141.288 326.123 139.432 325.559 138.272 324.619C138.04 324.431 137.344 324.431 137.112 324.619C136.88 324.807 136.88 325.371 137.112 325.559C138.504 326.687 140.592 327.251 142.448 327.251C142.68 327.251 142.912 327.251 143.144 327.251C145.464 327.063 147.32 326.123 148.712 324.619C148.944 324.243 148.944 323.867 148.48 323.679C148.016 323.491 147.552 323.491 147.32 323.867Z" fill="#D88D50"/>
<path d="M268.19 91.3921C264.68 94.5281 263.87 95.8721 259.28 91.1681C251.99 83.3281 252.8 73.9201 251.72 64.7361C250.37 54.8801 247.94 45.0241 244.16 35.6161C243.35 33.6001 242.54 31.1361 241.46 29.1201C240.38 27.7761 239.03 27.3281 239.84 25.5361C240.65 23.2961 248.21 21.7281 247.67 19.2641C247.13 16.8001 239.3 12.7681 237.14 11.4241C232.55 8.96011 227.96 7.16811 223.1 5.60011C213.65 2.91211 203.39 2.24011 193.67 3.58411C161.27 8.51211 144.53 34.0481 143.18 59.5841C142.64 70.3361 149.39 86.4641 142.64 96.3201C138.05 102.816 130.76 96.0961 125.63 93.6321C102.41 84.8961 97.82 142.24 122.93 136.64C124.01 146.944 136.43 164.192 144.8 147.168C145.61 145.6 147.23 145.824 148.85 145.824C153.71 147.616 152.36 154.56 154.52 158.368C158.57 171.136 164.24 183.232 172.88 194.432C177.2 200.032 182.06 205.408 188 209.888C190.97 211.904 194.75 213.472 197.45 215.488C200.42 217.728 202.04 219.744 206.36 219.296C209.87 218.848 215.27 219.744 218.24 218.176C230.66 213.472 241.19 223.328 253.34 220.864C262.52 219.52 269.81 215.04 277.64 211.008C297.89 214.816 311.66 201.376 319.22 187.264C321.65 182.336 313.28 182.336 309.5 181.216C287.09 175.84 277.1 155.904 273.32 139.104C284.66 148.512 289.79 143.36 292.22 132.384C293.84 124.096 302.75 130.816 308.69 131.712C348.38 133.728 303.02 53.9841 268.19 91.3921Z" fill="#F9E3C7"/>
<path d="M179.63 72.5761C172.34 69.2161 173.42 81.3121 173.96 84.0001C175.04 88.7041 177.2 94.9761 181.52 98.3361C186.65 102.368 188.27 94.7521 188.54 91.6161C188 87.8081 187.73 84.0001 186.38 80.4161C185.03 77.7281 182.6 74.1441 179.63 72.5761Z" fill="#63422B"/>
<path d="M199.34 45.0239C190.43 45.9199 187.46 54.6559 186.11 60.7039C185.84 62.0479 185.84 63.3919 185.84 64.7359C185.84 65.1839 186.11 65.6319 186.38 65.8559C187.19 66.3039 189.89 62.2719 190.7 61.5999C192.59 60.0319 194.75 58.6879 197.45 58.2399C199.61 57.7919 201.77 58.2399 203.93 58.9119C205.55 59.3599 207.71 61.1519 208.79 59.5839C209.06 59.3599 209.33 58.6879 209.33 58.2399C209.33 56.4479 208.52 54.2079 208.25 53.0879C207.44 49.2799 205.01 44.5759 199.34 45.0239Z" fill="#63422B"/>
<path d="M165.59 46.8158C160.46 45.6958 155.87 50.1758 155.06 53.7598C154.79 54.8798 154.25 56.6718 156.14 56.8958C156.95 57.1198 158.57 55.9998 159.38 55.5518C160.73 55.1038 162.35 54.6558 163.97 55.1038C166.4 55.7758 167.75 57.5678 168.29 59.3598C168.56 60.2558 169.37 62.4958 170.72 62.9438C172.07 63.3918 172.61 62.2718 172.88 61.3758C173.15 60.7038 173.15 60.2558 173.15 59.8078C173.42 58.0158 173.15 55.9998 172.88 54.2078C171.8 51.2958 169.91 47.7118 165.59 46.8158Z" fill="#63422B"/>
<path d="M274.4 138.656C273.32 138.656 272.51 137.76 271.7 136.864C270.62 135.744 269.27 134.624 267.38 134.848C266.03 135.072 265.49 135.744 264.68 136.416L264.41 136.64C261.44 139.552 255.5 140.224 251.72 138.208C251.45 137.984 250.91 137.984 250.64 138.432C250.37 138.656 250.64 139.104 250.91 139.328C252.8 140.224 254.96 140.672 257.12 140.672C260.36 140.672 263.87 139.552 266.03 137.536L266.3 137.312C266.84 136.864 267.38 136.192 268.19 136.192C269 135.968 269.81 136.64 270.89 137.76C271.97 138.656 273.05 139.776 274.67 140C275.21 140 275.48 139.776 275.48 139.328C275.21 139.104 274.94 138.656 274.4 138.656Z" fill="#D88D50"/>
<path d="M150.2 132.384C150.2 131.936 149.93 131.712 149.39 131.712C148.85 131.712 148.58 131.936 148.58 132.384C148.31 140.448 150.2 148.736 153.71 156.352C153.71 156.576 154.25 156.8 154.52 156.8H154.79C155.33 156.576 155.33 156.352 155.33 155.904C151.82 148.512 149.93 140.448 150.2 132.384Z" fill="#D88D50"/>
<path d="M192.05 100.128C191.51 100.128 191.24 100.352 191.24 100.8C190.97 102.816 189.08 104.832 186.65 105.504C184.22 106.176 181.52 105.504 179.63 103.936C179.36 103.712 178.82 103.712 178.55 103.936C178.28 104.16 178.28 104.608 178.55 104.832C180.17 106.4 182.33 107.072 184.76 107.072C185.57 107.072 186.38 107.072 187.19 106.848C190.16 105.952 192.59 103.712 192.86 101.024C192.86 100.576 192.59 100.128 192.05 100.128Z" fill="#D88D50"/>
</svg>
