<?xml version="1.0" encoding="UTF-8"?><svg id="Layer_2" xmlns="http://www.w3.org/2000/svg" viewBox="0 0 32.25 37.87"><defs><style>.cls-1{fill:#f9e3c7;}.cls-2{fill:#d88d50;}.cls-3{fill:#63422b;}</style></defs><g id="Layer_1-2"><path class="cls-1" d="m32.25,4.54c-.66-5.65-8.16-5.42-11.85-2.61-1.97,1.52-3.36,3.55-4.84,5.54-2.38,3.2-5.33,5.34-8.65,7.57-.98.66-1.97,1.4-2.83,2.22-4.55,4.29-5.53,10.76-1.76,15.83,3.53,4.49,10.13,5.34,15.58,4.49,8.08-1.01,14.68-8.19,14.23-15.99-.16-5.77-5.66-7.76-9.63-10.84-3.44-2.85,1.39-6.98,4.84-6.32,1.39.12,2.05,1.44,1.35,2.61-.49,1.13-3.94,2.42-3.65.35-3.73,2.18,6.68,4.21,7.22-2.85Z"/><path class="cls-2" d="m18.89,35.55c-.9.51-1.97.66-2.99.43-.08,0-.2.04-.2.12s.04.2.12.2c.33.08.61.08.94.08.78,0,1.6-.19,2.3-.58.08-.04.12-.16.08-.23-.04-.04-.16-.04-.25,0Z"/><path class="cls-3" d="m24.38,28.68c-2.09.08-3.69,1.09-4.92,2.61-.2.27-.29.62-.41.94.08.19.16.43.29.47.16.04.37-.04.53-.16.45-.35.82-.78,1.31-1.09,1.23-.74,2.46-1.44,3.69-2.15.12-.08.25-.19.33-.27-.12-.12-.25-.23-.37-.31-.12-.04-.29-.04-.45-.04Z"/><path class="cls-3" d="m12.66,31.41c-1.27-1.13-2.83-1.56-4.55-1.6-.29,0-.57.12-.86.16v.16c.2.08.41.16.61.27.78.35,1.56.66,2.34,1.01.49.23.94.47,1.39.74.45.27.9.55,1.31.82.12.08.25.12.37.16.04-.12.2-.31.12-.39-.2-.47-.37-.98-.74-1.33Z"/><path class="cls-3" d="m17.62,33.91c-.33.08-.7.16-1.03.23-.41.12-.82.19-1.23.35-.12.04-.29.19-.29.31s.12.27.25.31c.33.12.7.19,1.07.27.57-.12,1.11-.23,1.6-.39.37-.12.57-.39.49-.78-.04-.27-.45-.43-.86-.31Z"/><path class="cls-2" d="m25,15.27c-.78-.51-1.48-.59-1.93-.23-.49.39-.41,1.13-.29,1.64.49,2.26,1.15,4.52,1.93,6.71.04.08.12.12.2.12.08-.04.12-.12.12-.19-.78-2.22-1.43-4.45-1.93-6.71-.08-.47-.16-1.01.16-1.29.45-.35,1.19.04,1.52.23,3.28,2.14,5.17,6.08,4.67,9.83,0,.08.04.16.16.19h.04c.08,0,.16-.08.16-.16.49-3.86-1.48-7.96-4.84-10.14Z"/><path class="cls-2" d="m9.75,15.66c-2.13.82-3.98,2.3-5.17,4.13-1.19,1.87-1.76,4.09-1.56,6.24,0,.08.08.16.16.16s.16-.08.16-.2c-.21-2.11.33-4.25,1.48-6.05,1.15-1.79,2.95-3.24,5-4.02.49-.2.82-.2,1.07-.04.25.19.29.59.12,1.17-.7,2.42-1.56,4.8-2.5,7.14-.04.08,0,.19.08.19.08.04.2,0,.2-.08.94-2.34,1.8-4.76,2.5-7.18.08-.27.33-1.13-.25-1.52-.41-.31-1.11-.04-1.31.04Z"/></g></svg>